<?xml version="1.0" standalone="no"?>
<!DOCTYPE svg PUBLIC "-//W3C//DTD SVG 20010904//EN"
 "http://www.w3.org/TR/2001/REC-SVG-20010904/DTD/svg10.dtd">
<svg version="1.0" xmlns="http://www.w3.org/2000/svg"
 width="718.124312pt" height="1172.115512pt" viewBox="0 0 718.124312 1172.115512"
 preserveAspectRatio="xMidYMid meet">
<metadata>
Created by potrace 1.16, written by Peter Selinger 2001-2019
</metadata>
<g transform="translate(-97.875688,1218.679693) scale(0.100000,-0.100000)"
fill="#000000" stroke="none">
<path d="M5766 12175 c-6 -5 -31 -11 -56 -13 -72 -4 -386 -51 -495 -74 -385
-79 -676 -189 -1222 -458 -293 -145 -382 -198 -365 -215 4 -3 -2 -3 -12 1 -12
5 -17 4 -13 -3 3 -5 -4 -9 -16 -9 -12 1 -21 -4 -20 -11 2 -7 -3 -10 -11 -7
-14 5 -207 -105 -280 -161 -25 -19 -46 -33 -46 -30 0 3 -22 -9 -50 -26 -27
-17 -50 -37 -50 -45 0 -8 -10 -14 -23 -14 -13 0 -52 -20 -88 -45 -35 -24 -102
-70 -149 -101 -47 -31 -112 -78 -145 -103 -33 -25 -75 -57 -94 -69 -135 -92
-541 -432 -740 -621 -80 -75 -141 -127 -137 -116 14 39 27 308 18 375 -7 49
-10 56 -12 30 -1 -19 -8 21 -16 90 -15 145 -46 309 -81 430 -34 121 -32 117
-43 100 -8 -13 -10 -12 -10 3 0 27 -23 20 -47 -16 -107 -157 -180 -579 -143
-827 11 -73 51 -217 71 -252 19 -36 -8 -14 -87 71 -86 94 -183 245 -253 394
-38 81 -111 300 -111 332 0 12 -28 35 -43 35 -3 0 -8 -21 -12 -48 -4 -35 0
-72 19 -143 65 -253 181 -452 384 -661 l95 -98 -34 -2 c-170 -7 -282 21 -401
102 -31 22 -59 36 -62 32 -8 -14 -10 -67 -2 -80 4 -7 6 -16 3 -19 -8 -8 199
-107 258 -124 30 -8 96 -14 162 -14 65 0 109 -4 105 -9 -3 -5 3 -6 14 -2 15 6
14 2 -6 -20 -40 -45 -64 -63 -81 -64 -9 0 -23 -7 -30 -16 -10 -13 -28 -15 -84
-12 -69 3 -73 5 -134 56 -59 49 -91 63 -61 27 11 -13 10 -14 -5 -8 -15 5 -17
3 -11 -12 4 -10 2 -21 -4 -25 -17 -11 62 -92 113 -118 96 -48 190 -33 286 45
46 38 47 37 23 -26 -3 -9 -1 -12 6 -7 7 4 12 14 12 22 0 8 7 31 16 52 l16 37
45 -135 c24 -74 72 -225 105 -335 32 -110 84 -276 113 -370 29 -93 69 -222 89
-285 19 -63 49 -161 67 -218 17 -56 30 -104 28 -107 -3 -2 -32 10 -64 26 -53
27 -67 30 -114 25 -77 -9 -142 -49 -222 -135 -176 -188 -233 -477 -134 -683
10 -20 22 -35 26 -33 13 8 59 -86 91 -185 38 -117 69 -152 149 -169 64 -13
250 -18 297 -7 63 15 31 21 -89 17 -124 -3 -227 10 -265 34 -22 14 -56 79 -68
129 -7 28 -6 28 45 -18 28 -25 84 -62 123 -82 63 -30 82 -35 142 -35 103 0
218 48 300 123 24 23 46 39 48 37 2 -2 34 -56 72 -119 98 -167 174 -269 282
-382 303 -316 658 -503 1104 -584 67 -12 95 -21 89 -28 -4 -6 -31 -40 -58 -76
-192 -249 -575 -851 -638 -1003 -18 -44 -4 -50 17 -6 l15 31 7 -28 c6 -22 2
-32 -18 -51 -14 -13 -26 -28 -26 -33 0 -17 19 -11 32 10 22 35 18 46 108 -246
10 -32 13 -91 3 -64 -3 8 -18 29 -33 45 -15 17 -36 53 -46 80 -12 32 -20 43
-22 32 -4 -18 -4 -18 -24 0 -20 18 -21 18 -12 -7 4 -14 8 -47 9 -75 1 -28 15
-87 33 -135 18 -47 32 -89 31 -95 0 -5 -9 15 -21 45 -11 30 -25 60 -30 65 -10
10 -9 4 8 -56 4 -14 2 -19 -5 -15 -18 12 -12 -23 7 -42 23 -23 38 -69 17 -52
-8 7 -19 9 -25 5 -14 -9 -39 13 -53 45 -8 20 -11 21 -14 8 -2 -9 1 -27 7 -39
7 -12 14 -52 16 -88 7 -129 12 -144 51 -175 19 -16 34 -25 32 -20 -3 5 -19 40
-37 79 -18 38 -30 75 -28 81 3 7 0 29 -5 49 -6 20 -8 39 -6 42 5 4 7 2 84
-145 27 -51 53 -89 58 -85 4 5 5 3 1 -4 -8 -15 20 -69 57 -108 15 -16 28 -33
28 -37 1 -5 2 -12 3 -17 2 -15 71 -111 79 -111 5 0 5 -4 2 -10 -14 -23 15 -8
33 17 l20 28 29 -21 c22 -17 29 -32 34 -73 5 -33 16 -64 33 -86 l27 -35 -20
-138 c-11 -75 -34 -227 -50 -337 -70 -468 -131 -1049 -131 -1245 0 -9 -16 -20
-37 -27 -21 -6 -65 -24 -98 -39 -51 -22 -57 -28 -40 -35 18 -7 17 -8 -7 -8
-15 -1 -29 -5 -32 -10 -3 -5 9 -8 27 -7 19 0 31 -4 30 -10 -1 -7 7 -20 17 -29
17 -16 25 -17 59 -7 75 23 81 19 81 -45 0 -63 14 -98 28 -75 5 7 15 10 23 7
11 -4 13 6 11 55 -5 78 11 99 57 72 35 -20 37 -31 14 -75 -15 -29 -17 -30 -25
-12 -7 17 -8 17 -4 -4 3 -13 0 -33 -5 -43 -6 -11 -9 -22 -6 -24 2 -2 18 23 36
55 17 33 36 63 40 66 5 3 31 -10 58 -28 27 -18 81 -46 119 -61 38 -16 85 -35
104 -44 19 -8 54 -17 78 -20 28 -3 39 -8 31 -13 -23 -14 -4 -20 103 -35 133
-19 140 -21 136 -47 -1 -12 1 -27 4 -33 4 -6 13 -93 19 -194 14 -210 8 -252
-53 -375 -14 -28 -62 -64 -90 -67 -12 -2 -26 -7 -30 -12 -4 -6 -13 -4 -22 3
-9 7 -22 11 -30 8 -9 -4 -29 7 -47 24 -17 16 -34 29 -38 29 -20 0 -113 216
-129 299 -4 19 -13 36 -20 39 -17 5 -15 -9 8 -64 30 -69 18 -65 -16 6 -15 33
-32 60 -37 60 -18 0 -32 -27 -33 -65 0 -39 -15 -346 -20 -415 -1 -19 -3 -49
-3 -67 l-1 -32 -62 26 c-61 24 -69 25 -212 19 -82 -4 -155 -11 -162 -17 -7 -6
-17 -9 -21 -6 -4 3 -64 10 -133 17 -102 9 -184 8 -440 -5 -173 -8 -353 -20
-400 -26 -179 -21 -504 -82 -634 -118 l-70 -19 -76 38 c-75 38 -145 55 -145
35 4 -76 20 -165 29 -165 8 0 11 11 10 28 -13 120 -13 122 10 122 11 0 47 -15
78 -33 l57 -33 -58 -13 c-32 -7 -64 -17 -72 -21 -25 -16 1 -23 39 -11 47 16
147 10 229 -13 55 -15 65 -15 84 -3 18 14 17 14 -24 10 -25 -3 -52 -1 -62 4
-12 7 66 13 246 18 145 4 283 9 307 10 25 2 47 -2 55 -9 7 -7 29 -19 49 -26
48 -18 41 -26 -29 -35 -32 -4 -67 -9 -78 -12 -11 -2 -108 -7 -215 -11 -139 -4
-181 -8 -145 -13 116 -17 389 -2 498 26 42 11 56 10 110 -7 34 -11 82 -23 107
-28 25 -5 54 -11 65 -14 82 -17 147 -21 340 -20 186 0 236 4 323 22 57 12 158
29 225 37 123 16 159 22 407 70 74 14 155 26 180 26 104 2 331 -14 318 -22 -7
-5 -32 -9 -56 -9 -50 0 -54 -20 -6 -32 16 -4 47 -11 69 -17 98 -26 195 2 195
55 0 13 -5 24 -12 24 -6 0 -9 2 -6 5 3 3 104 8 224 10 l219 6 115 -31 c120
-32 307 -69 350 -70 45 0 1 18 -64 26 l-61 8 64 7 c53 7 78 4 149 -16 46 -14
93 -25 104 -25 32 0 11 17 -29 24 -21 4 -51 13 -68 20 -26 12 -9 14 147 12
140 -1 178 -4 178 -14 0 -8 7 -11 18 -8 44 14 125 22 212 19 52 -1 126 -2 165
-2 87 -1 75 -17 -20 -25 -38 -4 -101 -11 -140 -16 -38 -5 -96 -12 -128 -15
-35 -4 -55 -10 -51 -17 6 -9 105 -5 175 7 13 2 47 6 74 9 218 24 331 40 340
47 17 16 -16 29 -75 29 -116 1 -77 17 82 35 270 29 351 35 387 28 24 -4 32 -2
27 6 -5 7 2 11 18 11 13 0 31 3 39 6 12 4 14 0 10 -14 -3 -14 1 -22 14 -25 16
-4 16 -5 1 -6 -10 0 -18 -6 -18 -12 0 -8 15 -10 46 -5 26 3 56 6 68 6 13 0 16
3 9 8 -6 4 -10 12 -10 17 1 6 -16 12 -38 15 -72 9 -34 36 57 42 20 1 39 7 42
13 6 17 252 97 284 93 30 -3 44 -26 69 -113 9 -33 19 -52 21 -42 2 9 8 17 14
17 13 0 3 57 -19 113 -10 25 -18 34 -23 26 -6 -8 -11 -5 -19 10 -10 18 -20 21
-79 20 -37 -1 -56 -4 -43 -6 16 -3 -22 -20 -122 -53 -161 -53 -163 -53 -362
-19 -40 6 -207 13 -395 14 -179 2 -343 7 -365 13 -150 38 -190 36 -392 -21
-63 -18 -58 -28 -73 138 -6 66 -20 190 -30 275 -11 85 -20 162 -20 170 0 13
-1 13 -10 0 -7 -11 -10 -6 -10 20 -1 32 -2 33 -14 17 -12 -16 -14 -16 -20 -1
-8 21 -68 -65 -96 -138 -44 -116 -135 -287 -152 -287 -10 -1 -18 -8 -18 -16 0
-14 -83 -45 -122 -45 -69 0 -171 98 -205 196 -11 33 -18 43 -22 31 -3 -9 -7
68 -9 171 -1 103 -4 242 -7 309 -5 142 -22 125 140 147 55 8 141 26 192 39
l92 25 6 -36 c9 -54 17 -71 22 -50 3 10 10 18 16 18 17 0 107 58 107 69 0 15
-44 -1 -58 -21 -19 -26 -32 -22 -32 11 0 25 6 31 38 42 20 6 72 27 115 46 44
19 80 33 82 31 2 -2 10 -43 19 -92 23 -133 40 -136 33 -5 l-6 105 32 12 c29
10 30 10 13 -3 -11 -8 -23 -15 -28 -15 -4 0 -8 -5 -8 -11 0 -5 22 2 50 18 27
15 50 34 50 41 0 7 4 11 9 8 5 -3 13 0 19 7 18 21 -44 43 -82 29 l-31 -12 24
19 c14 10 60 33 103 51 73 30 104 50 78 50 -6 0 -26 -7 -46 -15 -34 -14 -63
-11 -75 8 -4 5 -18 1 -33 -9 -15 -9 -45 -19 -67 -21 -36 -4 -39 -2 -39 22 0
77 -91 615 -216 1283 -52 276 -94 506 -94 510 0 4 7 -2 15 -12 8 -11 18 -17
21 -13 4 4 13 2 20 -4 17 -14 35 -3 28 16 -7 18 14 85 27 85 5 0 9 6 9 14 0 8
9 18 21 21 19 6 45 50 40 69 -1 5 7 18 17 30 22 24 166 261 194 318 20 40 24
73 8 63 -5 -3 -10 3 -10 15 0 12 -4 18 -10 15 -13 -8 -14 -12 19 84 16 46 31
77 33 70 3 -8 3 7 2 31 -3 48 -16 54 -44 21 -8 -10 -33 -26 -55 -36 -22 -10
-44 -20 -49 -23 -11 -6 47 79 79 117 11 13 14 21 8 17 -17 -10 -16 -1 3 37
l17 32 -24 -20 c-22 -19 -22 -18 4 27 15 26 27 57 27 70 -1 19 -4 17 -23 -17
-39 -70 -89 -146 -94 -141 -3 2 11 76 31 163 53 231 48 220 81 183 10 -11 23
-20 29 -20 5 0 -7 17 -27 38 -20 21 -37 43 -37 50 0 7 -4 12 -10 12 -5 0 -10
9 -10 21 0 12 -4 17 -11 13 -13 -8 -76 51 -137 131 -26 33 -98 121 -160 195
-145 173 -134 159 -220 270 -100 127 -143 179 -230 279 -41 46 -70 87 -65 91
4 4 55 23 113 43 58 20 127 48 155 62 27 15 97 47 155 72 58 24 134 61 170 80
36 20 80 45 97 54 204 114 503 361 690 571 92 103 116 133 260 323 42 55 86
112 99 128 123 146 327 588 410 885 16 59 22 68 83 116 111 90 210 203 196
226 -4 6 -1 9 6 8 7 -2 16 12 20 32 4 20 29 75 54 123 45 84 61 106 49 70 -4
-12 1 -9 14 7 28 34 50 110 57 195 3 39 10 72 15 73 6 2 10 18 10 35 1 18 10
68 22 112 25 94 37 327 18 350 -7 8 -9 19 -5 24 3 6 1 28 -4 48 -5 21 -13 103
-16 183 -5 96 -13 163 -24 198 -10 28 -14 52 -9 52 9 0 -47 74 -159 210 -34
42 -91 96 -125 122 -35 25 -72 56 -83 68 l-20 23 125 -8 c69 -3 269 -12 444
-19 227 -9 321 -16 324 -24 2 -7 10 -12 19 -12 11 0 14 10 12 40 -2 21 0 42 4
46 4 4 -6 21 -21 38 -33 36 -125 196 -112 196 5 0 27 -21 50 -47 51 -59 40
-33 -14 30 -21 26 -43 44 -49 40 -6 -3 -7 -2 -4 4 4 5 -4 19 -18 31 -13 11
-51 63 -86 114 -39 59 -104 135 -178 208 -104 103 -228 209 -241 206 -3 0 -21
11 -40 25 -64 47 -204 117 -300 149 -52 18 -104 36 -115 40 -46 20 -277 71
-346 76 -41 3 -90 7 -109 9 -126 12 -284 5 -460 -21 -64 -9 92 60 275 121 178
60 286 83 374 78 53 -3 81 -1 77 5 -3 5 6 13 20 16 17 5 24 12 20 21 -4 12 4
15 40 15 28 0 43 4 39 10 -3 6 -27 10 -53 10 -26 0 -79 7 -117 15 -39 9 -98
20 -133 25 -79 12 -445 15 -619 5 -90 -5 -133 -4 -133 3 0 13 -69 11 -84 -3z
m31 -11 c-3 -3 -12 -4 -19 -1 -8 3 -5 6 6 6 11 1 17 -2 13 -5z m-180 -40 c-3
-3 -12 -4 -19 -1 -8 3 -5 6 6 6 11 1 17 -2 13 -5z m1028 -33 c28 -7 -8 -8
-125 -3 -195 8 -486 4 -585 -8 -46 -6 -3 -7 130 -3 224 7 283 7 405 -3 l85 -6
-70 -20 c-38 -11 -110 -33 -160 -50 -118 -39 -138 -43 -90 -18 22 11 32 18 22
15 -10 -3 -23 -5 -28 -5 -5 0 -18 -9 -29 -20 -11 -11 -61 -40 -112 -66 -51
-26 -115 -61 -143 -79 -27 -17 -85 -53 -127 -79 -102 -62 -109 -76 -11 -20 81
46 109 54 100 30 -7 -17 34 -29 72 -21 141 28 521 37 681 16 121 -16 290 -52
322 -67 15 -8 34 -14 43 -14 8 0 34 -8 58 -19 23 -10 83 -35 132 -56 50 -21
108 -52 130 -69 22 -17 52 -38 67 -45 79 -40 284 -249 381 -388 44 -63 168
-275 163 -280 -6 -7 -571 19 -586 27 -8 4 -23 5 -32 1 -34 -12 -398 -5 -411 8
-10 10 -7 11 13 7 14 -3 70 -2 125 3 91 7 94 8 35 10 -224 5 -296 12 -383 35
-51 14 -113 27 -139 31 -25 3 -62 12 -82 20 -19 8 -52 15 -73 14 -34 -1 -35
-2 -13 -9 24 -8 24 -8 2 -9 -12 -1 -25 6 -28 14 -7 17 -59 21 -69 5 -3 -5 -11
-10 -16 -10 -6 0 -8 4 -5 8 3 5 -7 9 -22 10 -15 0 -47 10 -72 21 -40 17 -42
20 -17 20 17 1 27 7 27 16 0 8 15 35 33 61 28 39 32 54 33 111 2 71 -12 142
-30 158 -7 6 -13 21 -13 35 -1 14 -10 30 -19 35 -9 6 -40 32 -67 59 -57 56
-168 111 -253 127 -192 35 -269 -102 -169 -302 59 -116 157 -229 264 -302 18
-12 20 -17 10 -20 -8 -2 -31 -10 -53 -17 -77 -25 -337 -28 -481 -6 -29 4 -21
-1 30 -18 79 -27 265 -42 284 -23 7 7 11 8 11 1 0 -6 7 -11 15 -11 8 0 15 3
15 7 0 4 24 7 53 7 28 0 74 8 100 17 63 21 96 20 154 -5 58 -25 61 -24 -123
-69 -75 -19 -138 -40 -150 -51 -11 -11 -28 -19 -38 -19 -10 0 -37 -11 -60 -25
-34 -20 -79 -30 -217 -50 -220 -31 -414 -63 -699 -114 -219 -38 -226 -39 -245
-21 -57 53 -105 66 -238 68 -96 1 -136 6 -163 18 -33 16 -34 17 -18 35 10 11
22 19 28 18 39 -5 46 2 45 39 -1 20 2 62 5 92 12 110 -34 236 -104 285 -48 33
-125 43 -167 21 -56 -28 -78 -79 -78 -176 0 -106 27 -163 111 -239 32 -28 55
-53 51 -57 -23 -24 -249 76 -291 128 -16 21 -26 27 -26 17 0 -8 12 -27 28 -41
34 -33 177 -108 205 -108 32 0 67 -11 67 -21 0 -5 -15 -6 -32 -3 -25 4 -29 3
-18 -5 20 -14 57 -13 101 3 31 11 42 10 80 -5 24 -10 37 -19 29 -19 -8 -1 -26
-3 -40 -5 -33 -4 -84 -5 -202 -2 -60 1 -98 -2 -98 -8 0 -5 -4 -4 -9 4 -6 9
-18 11 -41 6 -24 -5 -29 -10 -19 -16 13 -8 -2 -11 -96 -14 -56 -2 -225 -43
-225 -54 0 -3 -23 -5 -50 -5 -28 1 -56 -4 -63 -10 -7 -7 -47 -23 -90 -37 -42
-13 -77 -27 -77 -31 0 -4 -15 -4 -33 -1 -34 5 -32 7 -186 -122 -27 -22 -68
-57 -92 -77 -24 -20 -56 -39 -71 -43 -14 -4 -42 -23 -60 -43 -31 -34 -45 -40
-171 -71 -85 -21 -134 -37 -130 -44 4 -6 -3 -8 -18 -4 -39 10 -370 -70 -392
-95 -14 -16 -20 -18 -32 -8 -8 6 -19 9 -24 6 -5 -4 -32 -7 -60 -7 -48 -2 -66
-12 -38 -22 12 -5 5 -7 -86 -25 -46 -9 -47 -9 -31 9 9 11 27 19 38 19 15 0 17
3 8 9 -9 5 18 38 95 113 214 209 460 412 887 734 23 17 47 38 55 47 7 10 18
17 24 17 5 0 39 22 76 48 36 26 78 54 93 61 15 8 25 17 23 21 -2 4 12 16 33
26 73 37 208 119 277 168 39 27 93 59 120 71 60 24 336 172 350 187 6 6 1 6
-12 -1 -13 -6 -23 -9 -23 -6 0 7 415 214 510 254 41 18 111 49 155 71 155 75
378 153 408 144 13 -4 17 -2 13 5 -4 6 5 13 21 17 15 3 62 17 103 30 125 40
321 80 265 53 -15 -7 -10 -8 20 -5 22 2 122 12 222 22 100 10 179 22 176 27
-3 5 -19 6 -37 3 -49 -8 -212 -19 -206 -13 5 5 253 31 450 46 143 11 671 5
725 -8z m-1185 -41 c0 -5 -19 -9 -42 -9 l-43 2 35 7 c19 4 38 8 43 9 4 0 7 -3
7 -9z m1200 -221 c101 -10 331 -62 358 -80 15 -9 14 -10 -2 -4 -41 12 -224 54
-296 67 -49 8 -165 13 -337 13 -145 0 -259 1 -254 3 65 22 331 22 531 1z
m-2610 -203 c0 -2 -7 -7 -16 -10 -8 -3 -12 -2 -9 4 6 10 25 14 25 6z m-55 -26
c-3 -5 -12 -10 -18 -10 -7 0 -6 4 3 10 19 12 23 12 15 0z m1844 -82 c11 -10
14 -10 18 0 8 21 56 15 157 -21 135 -49 224 -241 164 -357 -13 -25 -32 -49
-44 -55 -11 -6 -19 -16 -16 -23 11 -33 -154 45 -199 95 l-24 27 58 -32 c79
-44 72 -32 -13 20 -38 24 -70 47 -70 51 0 5 -20 32 -45 60 -77 88 -98 180 -54
233 14 17 51 18 68 2z m-1703 -449 c14 -13 22 -29 19 -38 -3 -9 -3 -12 2 -8
10 11 34 -93 26 -117 -3 -13 -1 -16 7 -11 15 9 5 -29 -16 -62 -18 -29 -40 -29
-54 -2 -7 11 -14 18 -17 15 -4 -3 2 -15 11 -25 23 -25 19 -62 -4 -40 -9 8 -22
15 -30 17 -23 5 -83 68 -85 89 -1 10 -9 32 -18 50 -20 37 -23 126 -4 141 33
28 129 23 163 -9z m2033 -93 c25 -7 47 -18 49 -24 5 -15 -14 -16 -23 -2 -3 6
-16 10 -28 10 -25 1 -81 29 -57 29 8 1 35 -5 59 -13z m-4536 -116 c42 -173 47
-217 45 -405 -1 -164 -28 -478 -42 -492 -3 -3 -10 7 -16 23 -6 16 -15 38 -20
49 -19 39 -59 221 -61 275 -1 31 -6 65 -10 75 -5 11 -6 -15 -4 -60 8 -125 15
-174 30 -212 8 -20 15 -43 15 -52 -1 -30 -26 15 -48 87 -44 142 -47 375 -8
579 18 94 75 258 86 246 5 -4 20 -55 33 -113z m-98 20 c-13 -36 -24 -60 -24
-53 -1 16 40 126 44 121 2 -2 -7 -33 -20 -68z m4280 -100 c-3 -5 -11 -10 -16
-10 -6 0 -7 5 -4 10 3 6 11 10 16 10 6 0 7 -4 4 -10z m-4318 -32 c-3 -8 -6 -5
-6 6 -1 11 2 17 5 13 3 -3 4 -12 1 -19z m5821 5 c-10 -2 -28 -2 -40 0 -13 2
-5 4 17 4 22 1 32 -1 23 -4z m225 -10 c-24 -2 -62 -2 -85 0 -24 2 -5 4 42 4
47 0 66 -2 43 -4z m260 -10 c-29 -2 -78 -2 -110 0 -32 2 -8 3 52 3 61 0 87 -1
58 -3z m195 -10 c-27 -2 -69 -2 -95 0 -27 2 -5 3 47 3 52 0 74 -1 48 -3z
m-6511 -35 c-3 -7 -5 -2 -5 12 0 14 2 19 5 13 2 -7 2 -19 0 -25z m5016 10 c3
-10 9 -10 26 0 25 15 53 8 94 -22 17 -13 31 -17 35 -10 6 9 21 10 40 4 4 -2
14 -4 22 -4 39 -4 137 -40 157 -58 22 -21 120 -71 139 -73 15 -1 52 -27 98
-69 22 -20 44 -36 50 -36 23 -1 57 -41 91 -106 20 -38 39 -71 44 -74 31 -20
77 -248 87 -435 10 -188 -36 -472 -104 -652 -19 -50 -121 -213 -133 -213 -3 0
-9 80 -12 178 -4 97 -11 204 -16 237 -6 33 -13 80 -16 105 -7 53 -15 85 -62
250 -71 250 -300 653 -496 872 -95 105 -97 110 -55 117 3 0 8 -5 11 -11z
m-5026 -75 c-3 -10 -5 -2 -5 17 0 19 2 27 5 18 2 -10 2 -26 0 -35z m4762 -10
c102 -76 287 -258 370 -363 108 -136 159 -216 231 -365 123 -251 163 -396 180
-640 10 -146 20 -215 20 -137 0 18 4 32 9 32 11 0 13 -208 3 -264 -6 -34 -16
-45 -74 -85 -45 -31 -80 -47 -105 -49 -21 -1 -42 -7 -47 -12 -6 -6 -26 -10
-46 -10 -19 0 -46 -9 -60 -20 -14 -11 -38 -20 -54 -20 -20 0 -27 -4 -23 -14 4
-10 0 -12 -14 -9 -10 3 -16 9 -13 14 3 5 0 9 -5 9 -6 0 -11 -4 -11 -9 0 -5 -9
-7 -20 -4 -11 3 -20 0 -20 -6 0 -5 -7 -8 -16 -4 -13 5 -13 8 -2 15 9 7 1 8
-24 4 -21 -2 -38 -1 -38 3 0 5 -31 11 -68 14 -116 11 -282 85 -282 126 0 7 -6
11 -14 8 -9 -4 -23 7 -37 26 -12 18 -38 45 -58 62 -28 23 -31 24 -16 6 l20
-24 -28 18 c-16 10 -26 24 -23 32 3 8 -2 17 -12 21 -51 21 -126 91 -157 147
-38 70 -125 337 -125 385 0 4 23 10 52 13 61 8 74 17 59 45 -11 21 -45 34
-101 37 -31 2 -35 6 -42 36 -9 42 -11 211 -3 302 4 45 2 67 -6 67 -6 0 -3 7 5
16 19 18 20 30 6 39 -6 4 -9 14 -6 23 2 10 7 29 10 45 l6 27 41 -39 c23 -22
39 -43 36 -48 -3 -5 13 -14 36 -21 43 -12 84 -5 177 30 87 33 169 106 217 192
26 48 28 58 28 161 -1 113 -24 211 -52 222 -7 3 -13 9 -13 14 0 22 39 5 109
-48z m806 47 c8 -13 -5 -13 -25 0 -13 8 -13 10 2 10 9 0 20 -4 23 -10z m-1435
-20 c-8 -5 -33 -10 -55 -11 l-40 -2 38 -6 38 -6 -29 -35 c-31 -37 -52 -73 -52
-87 0 -4 5 -1 10 7 11 17 13 1 4 -25 -6 -13 -9 -14 -16 -3 -5 8 -6 3 -2 -14 4
-17 2 -28 -4 -28 -6 0 -20 -25 -31 -56 -28 -72 -100 -408 -109 -503 -8 -83
-17 -93 -112 -120 -25 -7 -53 -15 -63 -18 -16 -4 -18 -1 -12 17 5 15 4 20 -4
16 -6 -4 -11 -15 -11 -24 0 -15 -21 -27 -80 -43 -11 -3 -18 21 -31 113 -42
273 -135 502 -255 620 l-57 56 34 6 c206 33 413 66 452 72 26 3 50 11 54 17 4
6 -2 8 -15 5 -12 -4 -24 -3 -27 2 -5 9 111 25 168 23 20 -1 37 3 37 8 0 5 12
9 28 8 l27 -1 -25 -8 c-23 -7 -23 -8 9 -9 25 -1 32 3 28 13 -6 15 13 19 93 24
20 1 22 0 10 -8z m-1155 -12 c14 -6 25 -16 25 -22 0 -6 -5 -5 -12 2 -19 19
-38 14 -38 -10 0 -21 0 -21 -21 -2 -18 16 -19 19 -5 22 9 2 16 8 16 13 0 12 4
11 35 -3z m1275 2 c-8 -5 -19 -10 -25 -10 -5 0 -3 5 5 10 8 5 20 10 25 10 6 0
3 -5 -5 -10z m-4265 -127 c-4 -36 -9 -62 -11 -60 -3 3 -2 40 2 83 5 44 10 70
12 60 2 -10 1 -48 -3 -83z m3748 80 c-7 -2 -21 -2 -30 0 -10 3 -4 5 12 5 17 0
24 -2 18 -5z m-70 -10 c-7 -2 -19 -2 -25 0 -7 3 -2 5 12 5 14 0 19 -2 13 -5z
m-50 -10 c-7 -2 -19 -2 -25 0 -7 3 -2 5 12 5 14 0 19 -2 13 -5z m1332 -33 c21
-22 37 -40 34 -40 -3 0 -23 18 -44 40 -21 22 -37 40 -34 40 3 0 23 -18 44 -40z
m-1400 25 c-25 -10 -175 -31 -175 -25 0 4 30 11 68 17 69 10 124 14 107 8z
m-3936 -75 c0 -8 -7 -1 -14 15 -8 17 -14 37 -14 45 0 8 7 2 14 -15 8 -16 14
-37 14 -45z m625 -107 c5 -87 3 -145 -8 -218 -21 -136 -38 -185 -31 -90 3 39
8 165 12 280 7 220 15 229 27 28z m4291 137 c-3 -5 -11 -10 -16 -10 -6 0 -7 5
-4 10 3 6 11 10 16 10 6 0 7 -4 4 -10z m73 -22 c15 -15 16 -58 2 -58 -10 0
-30 41 -30 61 0 13 14 11 28 -3z m1232 -18 c9 -16 8 -18 -5 -14 -8 4 -15 12
-15 20 0 20 7 17 20 -6z m-3527 3 c-7 -2 -19 -2 -25 0 -7 3 -2 5 12 5 14 0 19
-2 13 -5z m962 -23 c10 -11 16 -20 13 -20 -3 0 -13 9 -23 20 -10 11 -16 20
-13 20 3 0 13 -9 23 -20z m1091 -8 c-16 -32 -54 -68 -62 -59 -5 5 63 87 72 87
3 0 -2 -12 -10 -28z m-4726 -17 c0 -5 -5 -3 -10 5 -5 8 -10 20 -10 25 0 6 5 3
10 -5 5 -8 10 -19 10 -25z m5501 -70 c10 0 40 -46 53 -80 8 -23 11 -26 -78 77
-71 83 -91 122 -25 48 23 -25 45 -45 50 -45z m-3496 65 c-3 -5 -14 -10 -23 -9
-14 0 -13 2 3 9 27 11 27 11 20 0z m2877 -22 c-8 -8 -9 -4 -5 13 4 13 8 18 11
10 2 -7 -1 -18 -6 -23z m-394 -3 c-6 -14 -13 -23 -15 -21 -5 5 15 46 22 46 3
0 -1 -11 -7 -25z m1780 -10 c-3 -3 -9 2 -12 12 -6 14 -5 15 5 6 7 -7 10 -15 7
-18z m-3217 -59 c-66 -87 -76 -120 -74 -246 3 -165 63 -314 140 -346 88 -37
278 4 381 83 43 32 82 115 89 189 l6 56 19 -38 c10 -21 27 -47 38 -59 10 -11
26 -36 34 -55 20 -50 66 -316 66 -387 0 -129 -84 -454 -165 -639 -32 -73 -143
-219 -217 -285 -35 -31 -97 -87 -139 -125 -42 -38 -101 -84 -133 -103 -61 -36
-176 -82 -204 -80 -9 1 1 7 23 14 83 26 263 127 282 158 7 12 -9 3 -53 -30
-38 -28 -169 -93 -189 -93 -14 0 -85 -30 -95 -40 -3 -3 -52 -7 -110 -9 -58 -2
-106 -7 -108 -12 -2 -5 -18 -9 -35 -8 -27 0 -29 2 -12 9 l20 9 -20 0 c-11 1
-38 4 -60 7 -30 4 -36 3 -25 -5 13 -9 12 -11 -5 -11 -11 0 -27 5 -35 10 -13 8
-12 10 4 10 44 0 3 12 -51 15 -32 2 -66 3 -76 4 -9 1 -16 7 -15 13 2 8 -18 16
-54 22 -39 6 -58 14 -58 23 0 9 -6 12 -19 8 -31 -9 -52 4 -40 26 7 15 6 19 -6
19 -8 0 -37 16 -64 35 -26 19 -53 35 -59 35 -6 0 -14 9 -17 20 -3 11 -12 20
-20 20 -8 0 -16 9 -20 19 -3 11 -19 22 -35 26 -39 8 -128 90 -137 123 -3 15
-25 68 -48 117 -74 159 -99 266 -115 504 -13 204 1 289 75 456 37 83 165 274
190 281 11 4 31 19 45 33 20 21 48 31 139 51 68 14 106 26 95 30 -12 5 -5 10
27 18 85 23 129 30 129 21 0 -5 5 -9 11 -9 5 0 7 4 4 10 -3 6 1 7 10 4 19 -8
136 16 130 26 -2 3 6 6 17 5 19 -1 161 33 323 79 46 14 179 42 257 55 4 0 -15
-28 -41 -63z m1409 -25 c-6 -23 -15 -41 -20 -41 -6 0 -10 -8 -10 -19 0 -10 -8
-25 -17 -32 -9 -8 -14 -9 -11 -4 13 24 37 83 49 120 16 51 24 30 9 -24z m418
42 c-3 -18 -67 -67 -76 -58 -3 2 7 20 22 40 28 37 60 47 54 18z m152 -51 c-17
-33 -45 -73 -62 -88 -29 -27 -29 -26 6 19 20 27 36 54 36 60 0 13 43 77 48 72
2 -2 -10 -30 -28 -63z m-276 36 c-33 -39 -128 -128 -132 -124 -9 9 21 47 75
95 58 52 91 69 57 29z m-2752 -36 c-33 -35 -102 -87 -102 -77 0 8 10 18 69 68
53 44 71 49 33 9z m1212 -17 c-9 -14 -21 -25 -27 -25 -6 0 0 11 13 25 13 14
25 25 27 25 2 0 -4 -11 -13 -25z m-2194 11 c0 -2 -8 -10 -17 -17 -16 -13 -17
-12 -4 4 13 16 21 21 21 13z m2360 -21 c0 -3 -19 -22 -42 -42 -24 -21 -80 -73
-125 -117 -46 -44 -85 -77 -88 -74 -6 6 235 238 247 238 4 0 8 -2 8 -5z m-251
-90 c-18 -25 -36 -45 -40 -45 -4 0 -11 -9 -14 -20 -7 -23 -25 -27 -25 -6 0 15
89 115 103 116 5 0 -6 -20 -24 -45z m190 -52 c-46 -49 -105 -110 -131 -138
-26 -27 -50 -46 -53 -43 -14 14 232 268 259 268 5 0 -28 -39 -75 -87z m1097
41 c-3 -9 -9 -33 -12 -55 -8 -47 -22 -53 -17 -6 7 57 13 77 24 77 6 0 8 -7 5
-16z m-696 -24 c6 -11 8 -20 6 -20 -3 0 -10 9 -16 20 -6 11 -8 20 -6 20 3 0
10 -9 16 -20z m-376 -145 c-59 -58 -112 -105 -117 -105 -5 0 42 49 105 109 62
60 115 107 117 105 2 -2 -45 -51 -105 -109z m1043 28 c-3 -10 -5 -4 -5 12 0
17 2 24 5 18 2 -7 2 -21 0 -30z m-2768 -16 c-26 -23 -49 -53 -53 -67 -7 -29
-23 -57 -29 -50 -19 23 78 160 112 160 10 0 -1 -16 -30 -43z m-1133 -4 c-4 -4
-11 -1 -16 7 -16 25 -11 35 7 17 9 -9 13 -20 9 -24z m999 27 c-11 -5 -27 -9
-35 -9 -9 0 -8 4 5 9 11 5 27 9 35 9 9 0 8 -4 -5 -9z m-1015 -69 c-1 -10 -50
53 -50 63 0 6 11 -5 25 -24 14 -19 25 -36 25 -39z m1084 57 c-4 -7 -19 -29
-34 -48 -15 -19 -29 -42 -32 -50 -3 -9 -8 -2 -12 17 -13 56 -30 53 -20 -3 13
-73 9 -137 -14 -259 -30 -156 -36 -287 -23 -465 18 -230 60 -440 111 -545 16
-33 31 -71 34 -85 5 -24 21 -45 62 -81 11 -9 35 -40 54 -69 78 -115 240 -283
293 -303 9 -3 17 -11 17 -17 0 -6 6 -10 13 -9 26 3 37 -2 80 -39 35 -30 56
-40 95 -45 27 -3 76 -17 108 -30 114 -47 407 -65 549 -33 39 8 84 17 100 20
52 7 85 18 85 27 0 5 16 9 35 9 19 0 54 9 78 20 23 11 62 26 86 35 75 26 241
144 334 238 l88 89 40 -46 c76 -86 183 -142 369 -192 133 -36 380 -20 478 32
15 8 31 14 35 14 14 0 81 33 95 47 7 7 19 10 27 7 16 -7 56 13 52 26 -1 5 7
16 18 24 11 9 14 16 8 16 -7 0 -13 7 -13 15 0 19 3 20 -66 -11 -91 -41 -108
-47 -116 -46 -4 1 -23 -5 -42 -13 -133 -56 -319 -61 -492 -15 -134 36 -194 70
-287 162 l-58 57 46 86 c25 47 45 91 45 96 0 6 20 61 45 122 58 148 113 341
125 441 5 45 14 101 21 126 6 25 13 50 15 56 1 6 24 17 51 23 26 7 63 19 81
27 19 9 36 13 39 10 3 -3 -10 -56 -29 -118 -19 -62 -52 -168 -73 -236 -36
-117 -40 -154 -12 -120 6 8 55 27 107 41 126 33 140 36 140 29 0 -4 -23 -95
-50 -202 -27 -107 -47 -197 -44 -199 2 -3 16 -1 31 5 21 7 29 20 41 64 8 30
34 127 58 216 24 88 44 168 44 177 0 14 -9 15 -62 11 -35 -4 -75 -5 -91 -5
-16 1 -30 -5 -33 -14 -3 -8 -10 -12 -15 -9 -5 3 -25 -3 -43 -14 l-34 -20 9 33
c11 38 122 312 143 352 7 15 22 27 32 28 11 1 28 5 40 9 19 6 22 2 28 -51 4
-32 22 -103 40 -158 19 -55 37 -113 41 -130 3 -16 29 -78 56 -136 27 -58 49
-110 49 -116 0 -5 11 -20 25 -33 14 -13 25 -31 25 -40 0 -8 14 -30 30 -48 17
-18 30 -37 30 -42 0 -12 100 -98 145 -124 19 -12 88 -53 153 -93 144 -88 195
-109 337 -139 59 -12 165 -14 237 -3 77 11 104 14 150 18 12 1 15 6 11 17 -4
12 0 15 18 13 13 -2 40 2 59 8 19 7 50 14 68 18 29 6 32 4 32 -17 0 -30 -73
-238 -142 -403 -155 -372 -573 -903 -951 -1208 -297 -240 -703 -434 -1085
-518 -540 -119 -1082 -60 -1596 175 -33 15 -54 21 -48 13 7 -8 30 -22 52 -32
22 -10 40 -22 40 -26 0 -5 -23 5 -50 21 -28 17 -56 30 -62 30 -5 0 -7 7 -4 16
6 16 -18 43 -39 43 -5 0 -1 -6 9 -14 11 -8 17 -18 13 -21 -7 -8 -119 61 -197
121 -80 62 -184 159 -221 208 -29 37 -30 39 -6 18 47 -43 29 -11 -36 63 -112
127 -159 191 -125 170 7 -4 8 -3 4 5 -4 6 -11 9 -16 6 -5 -3 -14 4 -20 16 -10
17 -9 20 2 14 7 -3 4 1 -6 9 -29 23 -56 68 -56 92 0 12 -7 24 -15 28 -8 3 -15
11 -15 18 0 7 -9 24 -20 38 -11 14 -20 32 -20 41 0 9 -7 31 -16 49 -12 24 -19
29 -25 19 -6 -10 -9 -11 -9 -1 0 6 -9 12 -20 12 -16 0 -20 7 -20 36 0 22 -4
33 -10 29 -6 -4 -8 -15 -5 -24 9 -31 -4 -48 -73 -96 -123 -83 -275 -116 -378
-81 -62 20 -148 85 -152 113 -3 17 11 9 59 -37 33 -33 66 -60 72 -60 6 0 -15
24 -46 54 -40 38 -67 75 -93 130 -47 98 -52 144 -26 226 38 120 43 128 81 138
l36 10 -30 2 c-24 1 -19 4 25 15 71 18 109 18 116 1 3 -8 26 -17 51 -21 25 -4
55 -10 67 -15 l21 -9 -22 0 c-36 -1 -35 -18 1 -35 39 -18 59 -56 76 -141 6
-33 14 -68 17 -78 2 -10 -22 8 -54 40 -66 66 -94 87 -141 110 -30 14 -35 14
-49 0 -51 -51 -20 -254 48 -311 16 -14 54 -30 84 -37 51 -11 60 -11 99 8 65
32 75 62 64 203 -15 195 -54 265 -166 295 -31 8 -70 19 -87 24 -47 14 -105 12
-111 -3 -6 -15 -44 -29 -44 -16 0 20 82 109 133 144 62 43 118 54 183 37 51
-14 79 -44 109 -117 28 -69 58 -84 76 -37 8 22 7 35 -6 62 -9 18 -13 36 -11
39 3 3 1 11 -5 18 -6 7 -23 59 -38 116 -27 102 -169 559 -252 813 -66 205
-158 523 -174 603 -18 87 -17 82 -6 82 5 0 11 -22 15 -48 7 -56 134 -472 202
-667 144 -407 281 -852 288 -935 2 -20 10 -48 18 -64 l15 -28 1 41 c3 81 -120
505 -259 892 -79 221 -226 685 -242 769 -9 41 -17 104 -19 140 l-3 65 30 3
c33 3 168 30 340 68 61 14 148 33 195 43 47 10 107 26 133 35 26 9 58 16 70
17 12 0 51 9 87 19 80 22 104 24 94 8z m2746 -164 c0 -48 -2 -54 -21 -54 -19
0 -20 4 -15 58 3 31 5 71 6 87 l1 30 14 -34 c8 -18 15 -58 15 -87z m-3160 96
c-8 -5 -19 -10 -25 -10 -5 0 -3 5 5 10 8 5 20 10 25 10 6 0 3 -5 -5 -10z
m1958 -31 c27 14 28 7 3 -25 -21 -27 -32 -20 -51 31 l-10 30 18 -24 c16 -20
22 -22 40 -12z m-3103 -49 c3 -6 -1 -7 -9 -4 -18 7 -21 14 -7 14 6 0 13 -4 16
-10z m5815 -36 c11 -26 20 -49 20 -53 -1 -8 -49 81 -50 92 -1 18 11 3 30 -39z
m-2628 14 c-7 -7 -12 -8 -12 -2 0 14 12 26 19 19 2 -3 -1 -11 -7 -17z m-2972
2 c0 -5 -2 -10 -4 -10 -3 0 -8 5 -11 10 -3 6 -1 10 4 10 6 0 11 -4 11 -10z
m360 -55 c-7 -9 -15 -13 -18 -10 -3 2 1 11 8 20 7 9 15 13 18 10 3 -2 -1 -11
-8 -20z m-367 8 c-7 -2 -19 -2 -25 0 -7 3 -2 5 12 5 14 0 19 -2 13 -5z m87 -9
c0 -2 -16 -4 -35 -4 -19 0 -35 4 -35 8 0 4 16 6 35 4 19 -2 35 -6 35 -8z m103
9 c-7 -2 -21 -2 -30 0 -10 3 -4 5 12 5 17 0 24 -2 18 -5z m1210 -13 c-3 -12
-8 -19 -11 -16 -5 6 5 36 12 36 2 0 2 -9 -1 -20z m-1266 4 c-3 -3 -12 -4 -19
-1 -8 3 -5 6 6 6 11 1 17 -2 13 -5z m250 -101 c-2 -16 -4 -5 -4 22 0 28 2 40
4 28 2 -13 2 -35 0 -50z m950 -75 c-3 -8 -6 -5 -6 6 -1 11 2 17 5 13 3 -3 4
-12 1 -19z m2693 2 c0 -5 -9 -10 -21 -10 -11 0 -17 5 -14 10 3 6 13 10 21 10
8 0 14 -4 14 -10z m-3955 -55 c6 -2 -15 -4 -45 -4 -30 0 -61 3 -68 8 -12 7 90
4 113 -4z m3445 -420 c-15 -41 -21 -26 -8 21 6 21 13 32 15 23 2 -8 -1 -28 -7
-44z m2685 -25 c-4 -17 -9 -30 -11 -27 -2 2 -1 18 2 36 4 17 9 30 11 27 3 -2
2 -19 -2 -36z m-2560 -17 c-13 -95 -116 -395 -131 -380 -5 4 38 134 54 163 13
24 58 176 67 227 10 53 17 46 10 -10z m-194 -166 c-10 -9 -11 -8 -5 6 3 10 9
15 12 12 3 -3 0 -11 -7 -18z m-2094 -59 c-3 -7 -5 -2 -5 12 0 14 2 19 5 13 2
-7 2 -19 0 -25z m3359 -30 l29 -33 -32 29 c-31 28 -38 36 -30 36 2 0 16 -15
33 -32z m-3327 -78 c0 -19 -28 50 -28 70 0 18 4 12 15 -20 7 -25 14 -47 13
-50z m3275 -42 c9 -12 13 -24 11 -27 -6 -6 -65 50 -65 61 0 14 37 -10 54 -34z
m-3267 10 c-3 -8 -6 -5 -6 6 -1 11 2 17 5 13 3 -3 4 -12 1 -19z m2024 -1 c-10
-9 -11 -8 -5 6 3 10 9 15 12 12 3 -3 0 -11 -7 -18z m2062 -34 c-7 -2 -19 -2
-25 0 -7 3 -2 5 12 5 14 0 19 -2 13 -5z m-563 -149 c25 -13 34 -22 20 -18 -45
12 -101 45 -72 44 4 -1 27 -12 52 -26z m-1730 -34 c-12 -17 -50 -54 -84 -81
-33 -28 -74 -61 -91 -75 -62 -52 -358 -173 -392 -160 -6 3 -27 1 -45 -5 -41
-12 -212 -1 -234 16 -13 9 10 11 112 9 185 -4 340 34 462 114 102 66 248 171
267 192 27 30 30 24 5 -10z m170 22 c0 -9 -25 -33 -49 -47 -7 -4 -3 6 10 24
22 30 39 40 39 23z m2025 -32 c-29 -12 -118 -12 -110 0 3 6 34 10 68 9 44 0
56 -3 42 -9z m-3788 -32 c-3 -8 -6 -5 -6 6 -1 11 2 17 5 13 3 -3 4 -12 1 -19z
m343 -68 c0 -5 -2 -10 -4 -10 -3 0 -8 5 -11 10 -3 6 -1 10 4 10 6 0 11 -4 11
-10z m-74 -91 c15 -26 -6 -15 -37 18 l-34 36 32 -22 c18 -12 35 -27 39 -32z
m-71 -70 c4 -6 4 -13 1 -16 -7 -7 -46 26 -46 39 0 10 36 -8 45 -23z m450 -5
c22 -5 38 -13 35 -19 -7 -14 -34 -9 -100 17 -73 28 -84 40 -24 23 27 -7 67
-17 89 -21z m-1675 -55 c0 -5 6 -9 13 -7 16 3 97 -40 97 -52 0 -6 -20 -10 -44
-10 -120 0 -266 -147 -339 -340 l-32 -85 -3 73 c-4 102 28 216 81 288 45 60
122 118 149 110 11 -2 18 1 18 9 0 14 11 20 41 22 11 1 19 -3 19 -8z m2400 -9
c-8 -5 -19 -10 -25 -10 -5 0 -3 5 5 10 8 5 20 10 25 10 6 0 3 -5 -5 -10z
m-755 -92 c13 -6 5 -7 -25 -3 -25 3 -49 10 -55 16 -11 11 47 2 80 -13z m275
-27 c45 -8 45 -9 10 -12 -52 -4 -104 1 -114 12 -12 11 40 11 104 0z m-2244
-327 c0 -97 -2 -170 -6 -163 -32 59 -38 252 -10 312 7 15 14 27 14 27 1 0 1
-79 2 -176z m411 90 c-3 -3 -12 -4 -19 -1 -8 3 -5 6 6 6 11 1 17 -2 13 -5z
m83 -99 c0 -5 -5 -3 -10 5 -5 8 -10 20 -10 25 0 6 5 3 10 -5 5 -8 10 -19 10
-25z m-152 -98 c35 -27 90 -94 115 -143 l16 -32 -46 -11 c-32 -9 -49 -9 -56
-2 -6 6 -18 11 -27 11 -21 0 -76 57 -90 95 -13 33 -16 108 -5 125 7 11 41 -4
93 -43z m-282 -184 c-6 -6 -36 64 -35 81 0 6 10 -9 21 -32 11 -24 17 -46 14
-49z m294 -23 c0 -5 -2 -10 -4 -10 -3 0 -8 5 -11 10 -3 6 -1 10 4 10 6 0 11
-4 11 -10z m336 -48 c-44 -70 -187 -133 -298 -131 l-63 1 75 15 c92 18 201 69
261 121 24 22 45 39 47 37 2 -2 -8 -21 -22 -43z m-223 -169 c-7 -2 -19 -2 -25
0 -7 3 -2 5 12 5 14 0 19 -2 13 -5z m1347 -838 c14 -8 21 -14 15 -14 -5 0 -21
6 -35 14 -14 8 -20 14 -15 14 6 0 21 -6 35 -14z m657 -151 c-3 -3 -12 -4 -19
-1 -8 3 -5 6 6 6 11 1 17 -2 13 -5z m890 -81 c44 -49 135 -160 203 -248 149
-194 324 -405 480 -580 l117 -130 -23 -95 c-42 -178 -66 -285 -80 -355 -17
-80 -30 -115 -43 -115 -11 0 -71 61 -71 72 0 5 9 21 20 36 28 37 62 130 50
137 -5 3 -17 -6 -27 -21 -27 -39 -89 -104 -100 -104 -7 0 -51 49 -151 171
l-24 28 24 120 23 121 33 -6 c28 -6 34 -3 39 15 3 11 9 21 14 21 5 0 6 7 2 16
-3 10 -14 14 -27 12 -19 -4 -22 0 -22 26 1 22 -4 30 -15 29 -13 -3 -149 101
-149 114 0 6 2 5 75 -52 39 -31 45 -33 25 -11 -31 35 -121 104 -183 140 -39
23 -48 35 -57 69 -5 23 -17 65 -25 92 -8 28 -19 76 -25 107 -13 68 -31 87 -23
26 8 -63 0 -47 -52 97 -26 72 -67 174 -92 227 -74 157 -39 174 84 41z m-134
-30 c26 -54 58 -129 73 -168 29 -77 84 -255 79 -255 -2 0 -22 28 -46 63 -23
34 -60 83 -81 110 -35 42 -44 64 -75 188 -29 116 -33 143 -22 150 23 14 24 13
72 -88z m-651 50 c131 -4 175 -9 168 -18 -10 -12 -31 -78 -105 -328 -44 -149
-50 -194 -21 -155 7 10 25 16 44 16 18 -1 41 7 52 17 19 18 29 9 11 -11 -13
-14 -101 -212 -100 -226 0 -7 28 42 62 110 37 73 67 120 72 115 6 -4 7 -4 2 1
-4 5 1 19 10 30 17 20 17 20 -2 7 -11 -7 -8 -2 8 12 15 14 27 29 27 32 0 4 8
19 19 33 19 28 33 82 21 82 -4 0 -30 -25 -59 -54 -52 -56 -89 -86 -104 -86
-31 0 100 420 131 420 4 0 16 3 28 6 23 6 19 30 44 -251 10 -114 39 -469 65
-800 8 -104 19 -266 25 -360 5 -93 12 -192 15 -220 5 -56 15 -85 -106 300 -72
227 -90 278 -95 272 -3 -2 0 -16 6 -31 5 -15 10 -33 9 -39 0 -7 -13 23 -30 66
-16 43 -27 82 -24 87 5 9 -44 157 -71 213 -20 41 -33 47 -41 17 -3 -11 -10
-20 -15 -20 -6 0 -7 -11 -3 -27 4 -16 7 -36 7 -46 0 -9 3 -15 8 -12 4 3 6 -4
3 -15 -4 -13 -1 -20 7 -18 7 2 42 -84 94 -237 46 -132 124 -352 174 -488 l92
-249 15 -171 c9 -95 24 -305 35 -467 28 -428 41 -610 45 -650 2 -19 11 -152
20 -295 8 -143 17 -287 20 -320 2 -33 7 -115 11 -182 l6 -122 -24 6 c-12 3
-27 11 -33 17 -8 9 -135 9 -525 -1 -514 -12 -546 -14 -607 -32 l-33 -10 0 57
c0 56 5 104 36 367 9 72 56 400 105 730 70 467 95 609 111 640 12 22 26 58 33
79 17 57 31 55 49 -7 18 -63 49 -96 74 -81 38 24 89 146 152 362 l21 72 27
-25 c28 -26 104 -36 117 -15 3 6 15 10 26 10 10 0 19 5 19 11 0 5 5 7 11 3 16
-9 2 88 -22 149 -10 27 -41 90 -70 140 l-51 91 28 23 c33 26 25 31 -11 7 -24
-15 -24 -15 -97 93 -40 59 -79 118 -86 130 -7 13 -19 23 -27 23 -8 0 -15 8
-15 17 0 9 -7 24 -16 34 -15 16 -15 26 0 116 8 54 20 132 26 173 5 41 17 120
26 175 19 117 25 185 17 185 -10 0 -74 -51 -143 -114 -36 -32 -96 -87 -135
-122 -125 -112 -140 -127 -120 -113 18 13 19 13 6 -3 -7 -10 -18 -18 -24 -18
-22 0 -57 -44 -57 -72 0 -35 7 -35 56 0 21 15 44 31 51 35 11 7 87 -92 221
-288 l62 -90 -42 -35 c-23 -19 -80 -68 -126 -108 -48 -41 -91 -71 -98 -68 -9
3 -14 -2 -14 -14 0 -43 -35 -16 -91 73 -17 26 -34 47 -39 47 -10 0 16 -76 35
-104 23 -32 19 -36 -41 -36 l-55 0 -30 67 c-33 71 -149 417 -149 441 0 9 6 23
13 31 8 9 73 115 145 236 72 121 200 324 284 450 239 357 230 346 253 340 11
-3 100 -8 197 -12z m508 -380 l77 -242 -68 -111 -67 -111 -6 98 c-3 54 -10
141 -16 193 -5 52 -12 133 -15 180 -6 97 -23 278 -30 330 -8 57 39 -68 125
-337z m250 -62 c64 -95 78 -121 66 -121 -3 0 -31 39 -62 88 -32 48 -72 107
-91 131 -18 24 -33 49 -33 55 0 17 44 -39 120 -153z m-1 -75 c88 -109 83 -98
122 -261 40 -168 44 -332 13 -505 -8 -47 -15 -31 -52 120 -17 69 -54 217 -82
330 -28 113 -60 250 -71 305 -11 55 -22 109 -24 120 -5 19 -5 19 7 1 7 -10 46
-60 87 -110z m-919 -30 c0 -2 -7 -9 -15 -16 -13 -11 -14 -10 -9 4 5 14 24 23
24 12z m-549 -133 c-5 -10 -17 -27 -26 -38 -16 -19 -17 -19 -3 5 26 46 29 50
34 50 3 0 0 -8 -5 -17z m494 -13 c-3 -16 -22 -112 -41 -212 l-34 -183 21 -30
20 -30 -25 30 c-14 17 -59 76 -101 133 l-75 103 57 53 c112 102 141 126 151
126 6 0 14 9 17 20 10 31 17 24 10 -10z m1221 -27 c-6 -6 -76 30 -76 39 0 5
18 -1 40 -13 22 -12 38 -24 36 -26z m-1776 -63 c-6 -11 -13 -20 -16 -20 -2 0
0 9 6 20 6 11 13 20 16 20 2 0 0 -9 -6 -20z m1793 -50 c100 -71 99 -69 62
-178 -14 -41 -25 -82 -25 -93 0 -54 -21 -3 -54 129 -48 195 -49 189 17 142z
m-1823 0 c-6 -11 -13 -20 -16 -20 -2 0 0 9 6 20 6 11 13 20 16 20 2 0 0 -9 -6
-20z m-45 -80 c-9 -16 -18 -30 -21 -30 -2 0 2 14 11 30 9 17 18 30 21 30 2 0
-2 -13 -11 -30z m2405 9 c0 -6 -4 -7 -10 -4 -5 3 -10 11 -10 16 0 6 5 7 10 4
6 -3 10 -11 10 -16z m-956 -66 c-57 -104 -105 -176 -111 -169 -3 3 12 32 34
63 22 32 54 84 72 116 18 31 35 57 38 57 2 0 -12 -30 -33 -67z m566 7 c0 -5
-5 -10 -11 -10 -5 0 -7 5 -4 10 3 6 8 10 11 10 2 0 4 -4 4 -10z m-2058 -32
c-7 -7 -12 -8 -12 -2 0 14 12 26 19 19 2 -3 -1 -11 -7 -17z m2027 -79 c-12
-46 -25 -91 -30 -99 -17 -30 -10 5 27 139 24 86 27 52 3 -40z m-668 44 c-12
-20 -14 -14 -5 12 4 9 9 14 11 11 3 -2 0 -13 -6 -23z m178 -15 c-6 -12 -21
-35 -33 -49 -12 -15 -27 -35 -34 -45 -23 -34 10 27 43 78 30 48 47 59 24 16z
m61 -67 c-25 -36 -39 -42 -18 -8 8 12 18 28 22 35 5 7 10 11 13 8 3 -3 -5 -19
-17 -35z m259 -23 c40 -163 41 -169 25 -246 -18 -87 -10 -177 18 -219 l20 -28
-6 40 c-15 96 -17 132 -9 154 10 26 10 26 64 -209 99 -434 305 -1473 414
-2095 25 -143 48 -272 51 -287 4 -22 2 -28 -11 -28 -14 0 -15 -3 -6 -14 9 -11
-8 -20 -94 -50 -119 -41 -135 -43 -136 -18 -2 44 -8 109 -13 132 -9 48 -24
165 -36 270 -27 248 -134 956 -201 1335 -46 261 -77 447 -87 520 -7 48 -9 332
-3 385 4 30 -7 297 -14 363 -7 63 8 60 24 -5z m123 -134 c-6 -35 -12 -29 -12
14 0 23 3 32 9 24 4 -7 6 -24 3 -38z m-1262 6 c0 -5 -2 -10 -4 -10 -3 0 -8 5
-11 10 -3 6 -1 10 4 10 6 0 11 -4 11 -10z m1111 -203 c1 -32 -1 -60 -3 -63 -8
-7 -25 208 -19 231 6 22 19 -75 22 -168z m-1077 147 c3 -8 2 -12 -4 -9 -6 3
-10 10 -10 16 0 14 7 11 14 -7z m1333 -41 c28 -32 85 -93 127 -136 42 -42 76
-81 76 -86 0 -5 9 -13 21 -16 17 -6 18 -9 7 -23 -8 -10 -8 -13 -1 -9 20 12 8
-65 -13 -80 -27 -20 -41 -16 -66 17 -12 17 -29 30 -37 30 -29 -1 60 -70 90
-70 36 0 54 26 80 115 21 70 45 103 102 140 27 17 27 17 27 -7 0 -29 -47 -189
-58 -197 -4 -3 -8 -20 -9 -38 -2 -37 -14 -62 -59 -121 l-31 -41 -40 47 c-120
143 -223 277 -223 290 0 13 -3 13 -19 -2 -17 -16 -19 -15 -29 11 -32 82 -41
177 -22 214 16 28 22 25 77 -38z m-1321 -118 l36 -60 -58 -53 c-76 -68 -228
-187 -218 -170 4 7 -10 -5 -30 -27 -23 -25 -35 -32 -31 -20 4 11 10 29 12 40
5 18 4 18 -11 -2 l-17 -23 -33 33 -32 33 -11 -23 c-6 -13 -9 -32 -6 -42 4 -14
-3 -24 -26 -35 -77 -40 -78 -14 -6 112 62 110 139 200 235 275 36 29 74 60 85
70 20 18 21 18 48 -15 15 -18 44 -60 63 -93z m-741 45 c3 -5 2 -10 -4 -10 -5
0 -13 5 -16 10 -3 6 -2 10 4 10 5 0 13 -4 16 -10z m19 -82 c-3 -4 0 -7 7 -6 6
2 14 -3 16 -9 5 -14 -15 -17 -33 -5 -6 4 -14 20 -18 37 -7 29 -7 29 13 11 11
-10 18 -23 15 -28z m51 -28 c3 -5 1 -10 -4 -10 -6 0 -11 5 -11 10 0 6 2 10 4
10 3 0 8 -4 11 -10z m231 -35 c15 -24 15 -27 0 -44 -9 -9 -16 -23 -16 -29 0
-16 -22 -62 -29 -62 -7 0 -66 95 -77 123 -5 14 0 17 22 18 16 0 38 4 49 9 30
13 33 12 51 -15z m639 -90 c27 -52 46 -97 44 -100 -3 -2 -28 43 -57 101 -29
58 -49 103 -44 100 5 -3 30 -48 57 -101z m-900 74 c4 -11 4 -23 2 -26 -3 -3
-1 -16 4 -30 5 -14 6 -30 2 -36 -7 -12 -22 21 -33 76 -8 41 13 55 25 16z m782
-5 c16 -25 16 -27 -2 -37 -11 -6 -38 -28 -60 -50 -38 -36 -37 -36 18 7 32 25
60 46 62 46 9 0 74 -127 84 -164 l10 -38 -42 6 c-41 6 -54 16 -89 67 -22 31
-31 19 -47 -67 -33 -183 -116 -434 -142 -434 -5 0 -9 4 -9 9 0 5 -3 23 -7 41
-4 24 -3 31 5 26 8 -5 10 -2 6 8 -3 9 -9 16 -13 16 -3 0 -7 17 -7 38 -1 20 -5
53 -8 72 -7 37 20 197 37 218 6 8 6 12 -1 12 -6 0 -16 -13 -24 -30 -7 -16 -16
-30 -20 -30 -4 0 -12 -19 -18 -41 -7 -23 -23 -60 -38 -83 -18 -29 -27 -56 -28
-92 -1 -32 -12 -72 -28 -105 -14 -30 -24 -45 -22 -34 2 11 12 65 21 120 9 55
22 121 30 148 7 26 10 47 7 47 -4 0 -26 -17 -49 -38 -42 -39 -47 -50 -58 -132
-3 -25 -15 -61 -28 -80 l-22 -35 -3 27 c-2 14 8 49 22 77 31 61 32 70 6 46
-17 -15 -20 -16 -20 -3 0 9 7 21 15 28 8 7 12 16 9 21 -8 14 16 51 31 45 8 -3
17 4 21 17 8 27 93 109 105 101 5 -3 9 0 9 6 0 16 54 71 163 166 53 47 95 90
92 95 -14 22 16 6 32 -17z m-706 4 c26 -22 69 -86 69 -102 0 -9 5 -15 12 -13
6 1 16 -10 21 -25 9 -23 6 -31 -21 -63 -18 -19 -32 -39 -33 -43 0 -4 -2 -16
-4 -27 -6 -30 30 -85 56 -85 33 0 150 58 181 91 15 16 28 25 28 21 0 -12 -200
-212 -212 -212 -6 0 -5 6 2 15 7 9 9 19 5 23 -4 4 -10 1 -12 -5 -3 -7 -8 -13
-13 -13 -13 0 -56 82 -75 145 -10 31 -25 64 -33 72 -11 10 -16 46 -20 124 -4
103 -3 109 15 109 11 0 26 -6 34 -12z m1949 -114 c26 -37 36 -66 51 -144 9
-54 20 -109 24 -122 3 -13 -6 -3 -20 22 -15 25 -32 52 -40 60 -16 19 -64 230
-52 230 2 0 19 -21 37 -46z m434 11 c-4 -8 -10 -15 -15 -15 -4 0 -6 7 -3 15 4
8 10 15 15 15 4 0 6 -7 3 -15z m-2494 -30 c0 -5 -5 -3 -10 5 -5 8 -10 20 -10
25 0 6 5 3 10 -5 5 -8 10 -19 10 -25z m2267 -133 c20 -23 34 -45 31 -47 -3 -3
-35 34 -72 82 -63 82 -38 61 41 -35z m-2247 73 c0 -5 -5 -3 -10 5 -5 8 -10 20
-10 25 0 6 5 3 10 -5 5 -8 10 -19 10 -25z m1594 -65 c-27 -50 -59 -103 -71
-118 -12 -15 7 28 43 96 37 68 69 121 71 118 3 -3 -17 -46 -43 -96z m-1395 11
c-14 -11 -20 -24 -16 -34 8 -21 29 -21 70 -1 l32 16 -29 -31 c-38 -39 -81 -42
-97 -7 -10 21 -7 30 22 65 23 27 35 35 37 25 2 -8 -7 -23 -19 -33z m2030 -113
c24 -30 27 -48 9 -48 -28 0 -118 148 -118 193 0 6 20 -18 44 -54 25 -35 54
-76 65 -91z m-1329 101 c0 -14 -36 -11 -49 4 -8 11 -5 13 19 9 17 -2 30 -8 30
-13z m1432 -41 c-7 -7 -12 -8 -12 -2 0 14 12 26 19 19 2 -3 -1 -11 -7 -17z
m-262 -48 c6 -11 8 -20 6 -20 -3 0 -10 9 -16 20 -6 11 -8 20 -6 20 3 0 10 -9
16 -20z m121 -37 c25 -37 27 -43 10 -28 -22 19 -57 75 -47 75 3 0 20 -21 37
-47z m-569 -142 c-85 -126 -93 -132 -42 -36 83 157 93 171 100 150 4 -13 -13
-46 -58 -114z m-1462 47 c1 -21 -18 -4 -34 30 l-17 37 25 -30 c14 -16 25 -33
26 -37z m323 12 c-3 -12 -8 -19 -11 -16 -5 6 5 36 12 36 2 0 2 -9 -1 -20z
m-213 -35 c-7 -8 -16 -15 -21 -15 -5 0 -1 8 9 18 20 22 31 19 12 -3z m1930
-18 c0 -18 -2 -19 -10 -7 -13 20 -13 43 0 35 6 -3 10 -16 10 -28z m-2030 19
c0 -3 -4 -8 -10 -11 -5 -3 -10 -1 -10 4 0 6 5 11 10 11 6 0 10 -2 10 -4z
m1939 -18 c4 -13 11 -36 14 -53 5 -26 4 -25 -13 10 -19 40 -25 65 -15 65 3 0
9 -10 14 -22z m-469 -185 c-96 -170 -133 -233 -137 -229 -2 2 33 69 79 149 45
80 84 144 86 142 2 -2 -10 -30 -28 -62z m-1309 -20 c-9 -16 -10 -16 -11 -1 0
9 3 25 7 35 7 16 8 17 11 1 2 -10 -1 -25 -7 -35z m1378 -164 c-65 -122 -122
-216 -139 -232 -7 -6 6 24 30 68 58 109 152 266 157 262 2 -2 -20 -46 -48 -98z
m-1322 39 c-3 -8 -6 -5 -6 6 -1 11 2 17 5 13 3 -3 4 -12 1 -19z m-10 -60 c-3
-7 -5 -2 -5 12 0 14 2 19 5 13 2 -7 2 -19 0 -25z m-10 -50 c-3 -7 -5 -2 -5 12
0 14 2 19 5 13 2 -7 2 -19 0 -25z m-10 -60 c-3 -8 -6 -5 -6 6 -1 11 2 17 5 13
3 -3 4 -12 1 -19z m1399 -55 c-44 -84 -75 -130 -76 -109 0 19 89 170 97 162 2
-2 -7 -26 -21 -53z m-1409 -35 c-3 -7 -5 -2 -5 12 0 14 2 19 5 13 2 -7 2 -19
0 -25z m1453 -28 c-6 -11 -13 -20 -16 -20 -2 0 0 9 6 20 6 11 13 20 16 20 2 0
0 -9 -6 -20z m-210 -79 c-5 -11 -15 -23 -21 -27 -6 -3 -3 5 6 20 20 30 30 35
15 7z m317 -113 c-3 -8 -6 -5 -6 6 -1 11 2 17 5 13 3 -3 4 -12 1 -19z m39
-626 c-17 -16 -18 -16 -5 5 7 12 15 20 18 17 3 -2 -3 -12 -13 -22z m-136 -87
c-18 -31 -34 -54 -37 -52 -2 3 10 30 28 61 17 32 34 55 36 52 3 -3 -9 -30 -27
-61z m-293 -41 c-17 -36 -33 -59 -35 -51 -3 12 55 117 64 117 2 0 -11 -30 -29
-66z m463 -102 c0 -4 -12 -15 -26 -26 l-26 -18 17 31 c13 27 36 35 35 13z
m-446 -73 c-16 -28 -30 -46 -32 -40 -2 6 9 33 25 61 15 27 29 46 31 40 2 -5
-9 -33 -24 -61z m166 -69 c0 -5 -4 -10 -10 -10 -5 0 -10 5 -10 10 0 6 5 10 10
10 6 0 10 -4 10 -10z m83 -45 c-3 -9 -8 -14 -10 -11 -3 3 -2 9 2 15 9 16 15
13 8 -4z m65 -49 c-10 -23 -38 -44 -38 -29 0 7 41 53 47 53 1 0 -2 -11 -9 -24z
m-88 -1 c0 -18 -26 -55 -46 -64 -23 -10 -24 -9 -24 23 0 19 6 37 13 39 16 7
57 8 57 2z m290 -18 c0 -7 -9 -20 -20 -30 -23 -19 -25 -10 -9 27 12 25 29 26
29 3z m-508 -9 c-7 -7 -12 -8 -12 -2 0 14 12 26 19 19 2 -3 -1 -11 -7 -17z
m-192 2 c0 -5 -4 -10 -10 -10 -5 0 -10 5 -10 10 0 6 5 10 10 10 6 0 10 -4 10
-10z m610 -29 c0 -12 -133 -121 -139 -115 -3 3 22 31 54 64 56 56 85 73 85 51z
m-1482 -8 c-10 -2 -28 -2 -40 0 -13 2 -5 4 17 4 22 1 32 -1 23 -4z m105 0
c-13 -2 -35 -2 -50 0 -16 2 -5 4 22 4 28 0 40 -2 28 -4z m1467 -16 c0 -1 -28
-29 -62 -62 l-63 -60 60 63 c55 58 65 67 65 59z m-280 -92 c-75 -92 -80 -95
-80 -51 0 31 6 40 53 74 43 32 64 45 85 51 1 1 -25 -33 -58 -74z m127 -3 c-26
-27 -45 -51 -41 -54 3 -4 -3 -11 -14 -17 -29 -15 -72 -31 -72 -27 0 7 160 146
167 146 4 0 -14 -22 -40 -48z m-1067 25 c0 -1 -21 -20 -47 -42 -26 -21 -43
-33 -38 -25 27 47 49 70 66 70 10 0 19 -1 19 -3z m260 -7 c0 -5 -4 -10 -10
-10 -5 0 -10 5 -10 10 0 6 5 10 10 10 6 0 10 -4 10 -10z m216 -3 c-10 -7 -31
-22 -46 -34 -40 -33 -46 -28 -13 11 18 22 37 35 53 35 23 0 24 -1 6 -12z m-96
-1 c0 -2 -7 -6 -15 -10 -8 -3 -15 -1 -15 4 0 6 7 10 15 10 8 0 15 -2 15 -4z
m165 -36 c-16 -17 -33 -30 -39 -30 -5 0 5 16 24 35 18 19 36 32 39 30 2 -3 -8
-19 -24 -35z m-955 5 c-13 -14 -28 -25 -33 -25 -6 0 0 11 13 25 13 14 28 25
33 25 6 0 0 -11 -13 -25z m85 0 c-27 -12 -52 -21 -55 -18 -11 11 45 43 74 42
30 -1 29 -2 -19 -24z m125 19 c0 -9 -32 -33 -44 -34 -5 0 -1 9 9 20 18 20 35
26 35 14z m100 -1 c0 -3 -18 -30 -39 -58 -30 -39 -50 -55 -78 -63 -36 -10 -35
-10 15 -5 l52 6 0 -31 0 -30 -42 16 c-88 33 -88 33 -2 106 72 62 94 76 94 59z
m126 -40 c-8 -16 -22 -36 -31 -43 -9 -7 -23 -27 -32 -43 l-15 -30 29 5 c29 4
29 3 16 -22 -12 -25 -15 -26 -56 -16 -57 13 -54 23 30 115 68 74 86 84 59 34z
m1204 33 c0 -2 -7 -9 -15 -16 -13 -11 -14 -10 -9 4 5 14 24 23 24 12z m-628
-33 c-6 -10 -22 -29 -38 -43 -30 -28 -22 -9 16 37 27 33 38 36 22 6z m-926
-14 c-23 -20 -43 -29 -58 -27 -20 3 -15 8 27 30 66 35 73 35 31 -3z m735 -45
c-23 -30 -28 -74 -8 -74 7 0 30 14 51 32 l39 32 -28 -42 c-15 -23 -31 -42 -35
-42 -4 0 -21 -3 -37 -6 -28 -5 -29 -4 -30 33 -2 31 4 43 30 65 40 34 44 35 18
2z m187 -49 c-1 -1 -14 -6 -28 -10 l-25 -7 25 27 c21 22 26 24 28 10 2 -9 2
-18 0 -20z m-528 -15 c0 -16 -4 -30 -10 -30 -11 0 -14 43 -3 53 11 12 13 8 13
-23z m539 -322 c6 -139 13 -303 16 -364 l5 -111 -43 -12 c-23 -7 -63 -24 -90
-39 -26 -14 -50 -23 -53 -19 -8 7 -29 208 -49 462 -9 110 -19 219 -22 241 l-5
42 43 7 c45 7 82 23 64 26 -10 2 64 15 101 17 21 2 21 -3 33 -250z m-182 226
c-3 -3 -12 -4 -19 -1 -8 3 -5 6 6 6 11 1 17 -2 13 -5z m-450 -10 c-3 -3 -12
-4 -19 -1 -8 3 -5 6 6 6 11 1 17 -2 13 -5z m319 -211 c-14 -26 -25 -45 -26
-41 0 12 43 98 48 94 2 -2 -8 -26 -22 -53z m-6 -253 c-6 -11 -13 -20 -16 -20
-2 0 0 9 6 20 6 11 13 20 16 20 2 0 0 -9 -6 -20z m1061 -133 c-10 -9 -11 -8
-5 6 3 10 9 15 12 12 3 -3 0 -11 -7 -18z m-733 -159 c-3 -7 -18 -14 -34 -16
l-29 -2 25 14 c31 19 43 20 38 4z m-34 -48 l32 0 -7 -72 c-5 -39 -12 -75 -16
-79 -15 -15 -63 -22 -63 -9 0 8 -10 9 -30 5 -25 -6 -30 -4 -30 13 0 11 -3 33
-6 49 -5 24 0 37 27 67 19 22 38 35 46 32 8 -4 29 -6 47 -6z m1355 -90 c7 -4
-14 -10 -47 -13 -33 -4 -71 -11 -83 -16 -38 -15 -179 -44 -185 -38 -6 6 171
63 216 69 44 7 87 6 99 -2z m-2937 -22 c-7 -7 -12 -27 -12 -45 0 -18 -1 -33
-3 -33 -1 0 -57 7 -122 15 -66 8 -164 15 -217 15 -61 0 -112 5 -135 14 -21 8
-47 17 -58 19 -26 6 15 8 282 16 122 3 234 7 249 9 22 2 25 -1 16 -10z m153
-5 c-19 -15 -19 -15 5 -7 41 13 284 14 344 2 47 -10 56 -16 56 -33 0 -17 -6
-21 -27 -20 -16 1 -20 0 -11 -2 9 -2 21 -10 27 -16 8 -10 -4 -11 -52 -6 -34 3
-89 2 -122 -2 -152 -21 -347 -1 -362 37 -8 21 -2 25 79 45 90 22 87 22 63 2z
m1890 7 c3 -6 -1 -7 -9 -4 -18 7 -21 14 -7 14 6 0 13 -4 16 -10z m-2670 -18
c-6 -4 -22 -18 -36 -30 -19 -17 -43 -24 -90 -28 -117 -9 -243 -25 -249 -31 -3
-3 24 -4 60 -1 36 3 79 2 95 -2 26 -6 24 -7 -25 -13 -117 -14 -637 -32 -615
-22 13 6 126 31 255 55 58 11 115 23 128 26 20 4 22 2 13 -15 -17 -31 -13 -32
14 -6 16 17 35 25 60 25 19 0 35 4 35 9 0 11 65 21 200 31 139 10 165 11 155
2z m4365 -1 c38 -6 25 -9 -85 -19 -165 -15 -188 -15 -315 8 l-105 18 230 0
c127 0 250 -3 275 -7z m-680 -22 c-50 -17 -262 -39 -370 -38 -122 1 214 56
350 57 l75 1 -55 -20z m750 11 c0 -5 -2 -10 -4 -10 -3 0 -8 5 -11 10 -3 6 -1
10 4 10 6 0 11 -4 11 -10z m-4345 -20 c16 -7 12 -9 -20 -9 -22 -1 -51 -4 -65
-7 -24 -5 -24 -5 -6 10 21 17 59 20 91 6z m3840 -10 l30 -8 -35 -1 c-168 -9
-165 -9 -139 5 26 14 95 16 144 4z m624 5 c-3 -2 -83 -11 -178 -20 -95 -8
-177 -17 -182 -20 -5 -4 -9 0 -9 9 0 8 12 19 28 24 26 10 350 17 341 7z
m-2404 -45 c30 0 57 -5 61 -11 5 -8 -13 -10 -60 -7 -74 5 -82 9 -71 35 8 17 8
17 12 1 4 -14 15 -18 58 -18z m-1765 11 c-19 -11 -306 -35 -325 -27 -9 3 -38
1 -67 -4 -28 -6 -53 -8 -55 -6 -10 10 44 28 106 36 93 11 359 11 341 1z m1380
-1 c0 -5 -5 -10 -11 -10 -5 0 -7 5 -4 10 3 6 8 10 11 10 2 0 4 -4 4 -10z m-40
-10 c0 -5 -17 -10 -37 -10 -28 0 -34 3 -23 10 20 13 60 13 60 0z m828 -7 c-21
-2 -55 -2 -75 0 -21 2 -4 4 37 4 41 0 58 -2 38 -4z m96 -25 c-32 -8 -39 -5
-31 17 5 12 11 13 33 3 l26 -12 -28 -8z m638 18 c4 -6 36 -5 90 3 45 7 123 11
172 9 l89 -3 -44 -25 c-42 -23 -53 -24 -204 -25 -88 0 -218 4 -290 9 -142 9
-200 25 -100 26 33 1 80 5 105 9 66 10 174 9 182 -3z m55 8 c-3 -3 -12 -4 -19
-1 -8 3 -5 6 6 6 11 1 17 -2 13 -5z m748 0 c-57 -10 -438 -44 -442 -40 -3 3
10 14 28 25 32 19 49 21 234 20 110 -1 191 -3 180 -5z m-2948 -40 c9 -8 24
-13 34 -11 10 3 20 0 22 -7 3 -7 14 -6 37 7 33 18 174 25 184 9 2 -4 -32 -17
-77 -27 -74 -18 -117 -20 -422 -18 -216 1 -385 6 -465 15 l-125 14 75 8 c87 8
346 3 356 -7 11 -11 36 -8 29 3 -4 6 7 10 24 10 17 0 31 5 31 10 0 6 54 10
141 10 115 0 143 -3 156 -16z m669 -1 c-12 -12 -54 -14 -61 -3 -4 6 8 10 31
10 21 0 34 -3 30 -7z m1084 -13 c52 -7 97 -14 99 -16 2 -2 -25 -4 -62 -4 -85
0 -219 19 -232 32 -10 11 4 10 195 -12z m-835 0 c13 -22 -17 -38 -76 -42 -59
-3 -65 -1 -51 17 22 31 113 48 127 25z m-1773 -11 c2 -7 77 -17 203 -26 110
-8 253 -21 317 -30 l118 -17 -113 -24 c-102 -23 -135 -25 -367 -26 -267 0
-361 11 -491 59 -24 10 -66 25 -94 36 -27 10 -45 19 -40 20 25 4 261 16 357
17 71 1 108 -2 110 -9z m821 -46 c-7 -2 -21 -2 -30 0 -10 3 -4 5 12 5 17 0 24
-2 18 -5z m-86 -10 c-20 -2 -52 -2 -70 0 -17 2 0 4 38 4 39 0 53 -2 32 -4z"/>
<path d="M5775 12071 c-22 -3 -35 -9 -30 -12 14 -9 115 2 115 12 0 10 -22 10
-85 0z"/>
<path d="M6308 12013 c7 -3 16 -2 19 1 4 3 -2 6 -13 5 -11 0 -14 -3 -6 -6z"/>
<path d="M5238 12003 c6 -2 18 -2 25 0 6 3 1 5 -13 5 -14 0 -19 -2 -12 -5z"/>
<path d="M4730 11860 c-8 -5 -10 -10 -5 -10 6 0 17 5 25 10 8 5 11 10 5 10 -5
0 -17 -5 -25 -10z"/>
<path d="M4800 11550 c-37 -9 -50 -23 -82 -85 -30 -57 -37 -243 -14 -335 21
-83 72 -185 113 -226 29 -30 30 -33 15 -47 -9 -8 -24 -17 -32 -20 -10 -4 -8
-6 7 -6 12 -1 66 18 120 41 78 33 109 53 151 96 l52 53 31 -21 c19 -15 38 -20
53 -16 15 4 32 -1 49 -14 14 -11 29 -20 33 -20 4 0 -1 6 -12 14 -17 13 -14 13
23 3 33 -8 46 -8 55 1 9 9 7 12 -12 12 -14 0 -67 16 -117 36 -83 32 -92 37
-83 54 29 54 -2 249 -44 285 -13 11 -27 30 -30 42 -10 32 -91 102 -149 128
-70 31 -86 34 -127 25z m65 -99 c11 4 23 8 27 8 17 2 130 -103 153 -143 29
-49 51 -152 41 -192 l-7 -25 -42 32 c-23 18 -46 37 -52 43 -5 6 -19 18 -29 26
-18 13 -19 13 -11 0 18 -32 51 -76 73 -102 18 -20 22 -33 18 -55 -13 -55 -43
-76 -106 -74 -22 0 -23 -1 -8 -10 12 -7 24 -6 38 1 11 6 20 7 20 1 0 -16 -59
-31 -84 -21 -29 11 -64 55 -72 89 -4 14 -12 36 -20 48 -23 37 -54 165 -54 226
0 92 41 168 79 148 9 -5 25 -5 36 0z m205 -384 c0 -6 -9 -2 -20 8 -11 10 -20
23 -20 28 0 6 9 2 20 -8 11 -10 20 -23 20 -28z"/>
<path d="M5568 10973 c7 -3 16 -2 19 1 4 3 -2 6 -13 5 -11 0 -14 -3 -6 -6z"/>
<path d="M3720 10870 c6 -11 13 -20 16 -20 2 0 0 9 -6 20 -6 11 -13 20 -16 20
-2 0 0 -9 6 -20z"/>
<path d="M4707 10811 c-26 -10 -44 -21 -40 -24 6 -7 -26 -12 -59 -9 -10 1 -18
-4 -18 -12 0 -14 10 -13 103 14 26 8 47 18 47 23 0 4 3 6 8 4 4 -3 13 1 20 9
17 19 1 18 -61 -5z"/>
<path d="M4485 10755 l-60 -12 57 -2 c60 -1 88 5 88 20 0 11 -8 10 -85 -6z"/>
<path d="M4278 10743 c7 -3 16 -2 19 1 4 3 -2 6 -13 5 -11 0 -14 -3 -6 -6z"/>
<path d="M1533 10533 c2 -95 8 -122 19 -90 5 12 -9 163 -16 182 -3 6 -4 -36
-3 -92z"/>
<path d="M2645 8610 c3 -5 8 -10 11 -10 2 0 4 5 4 10 0 6 -5 10 -11 10 -5 0
-7 -4 -4 -10z"/>
<path d="M5860 8290 c-8 -5 -10 -10 -5 -10 6 0 17 5 25 10 8 5 11 10 5 10 -5
0 -17 -5 -25 -10z"/>
<path d="M2881 8043 c-126 -65 -206 -183 -218 -320 -6 -75 12 -167 28 -142 6
10 9 4 10 -21 1 -41 10 -68 24 -72 6 -2 9 -7 7 -12 -4 -13 17 -65 41 -99 45
-66 184 -93 381 -74 72 7 132 53 179 136 27 48 30 62 30 140 0 108 -22 184
-69 234 -20 20 -39 37 -43 37 -4 0 -13 15 -19 34 -14 37 -83 106 -106 106 -8
0 -38 11 -68 25 -33 16 -72 25 -103 25 -48 1 -49 1 -25 15 45 26 5 16 -49 -12z
m133 -33 c57 -22 106 -55 106 -71 0 -11 -82 -4 -147 13 -75 19 -129 -5 -231
-99 -19 -18 -37 -33 -39 -33 -7 0 30 66 64 113 35 47 57 62 47 30 -4 -10 3 -4
15 14 34 53 99 65 185 33z m162 -74 c32 -32 43 -56 26 -56 -8 0 -45 37 -71 73
-24 31 9 19 45 -17z m-276 -5 c0 -6 -22 -22 -50 -37 -27 -15 -47 -30 -45 -35
6 -9 -27 -69 -37 -69 -11 0 -10 14 2 44 18 49 130 131 130 97z m200 -31 c0 -5
16 -16 35 -24 21 -9 39 -26 45 -41 13 -34 13 -35 -3 -35 -16 0 -67 51 -67 67
0 6 -10 18 -22 26 -19 13 -20 16 -5 16 9 1 17 -3 17 -9z m45 0 c3 -6 -1 -7 -9
-4 -18 7 -21 14 -7 14 6 0 13 -4 16 -10z m95 -71 c0 -5 5 -8 11 -6 14 3 71
-90 67 -110 -5 -27 -117 87 -125 126 l-6 33 27 -17 c14 -9 26 -21 26 -26z
m-179 21 c29 -16 24 -40 -9 -40 -30 0 -52 16 -52 37 0 16 34 17 61 3z m-330
-151 c-12 -26 -21 -58 -21 -70 0 -19 -2 -20 -16 -8 -26 21 -11 132 24 184 l27
40 3 -49 c2 -33 -3 -64 -17 -97z m169 106 c-19 -14 -39 -25 -44 -25 -16 1 47
50 63 50 8 0 0 -11 -19 -25z m80 -16 c0 -15 -99 -114 -106 -106 -11 11 8 48
43 82 36 35 63 45 63 24z m54 -31 c22 -31 20 -45 -6 -53 -13 -4 -40 -23 -60
-43 -21 -20 -38 -30 -38 -23 0 18 70 141 80 141 5 0 16 -10 24 -22z m66 -10
c0 -15 -15 -8 -28 12 -12 19 -11 20 8 8 11 -7 20 -16 20 -20z m115 5 c26 -27
27 -32 23 -103 -4 -66 -31 -160 -42 -149 -2 2 0 27 6 56 10 48 1 205 -9 176
-9 -24 -23 -13 -23 17 0 37 10 38 45 3z m-393 -5 c-7 -7 -12 -8 -12 -2 0 14
12 26 19 19 2 -3 -1 -11 -7 -17z m472 -49 c38 -45 41 -71 16 -148 -23 -73 -78
-150 -136 -190 -33 -23 -42 -25 -63 -12 -11 7 0 26 49 86 75 92 89 126 90 223
0 39 4 72 9 72 5 0 21 -14 35 -31z m-452 -1 c-7 -7 -12 -8 -12 -2 0 14 12 26
19 19 2 -3 -1 -11 -7 -17z m-32 -38 c0 -17 -17 -37 -25 -29 -2 2 -1 16 2 31 6
30 23 28 23 -2z m239 -12 c-19 -37 -82 -118 -92 -118 -11 0 14 39 61 98 38 47
49 53 31 20z m126 -123 c-11 -36 -29 -68 -51 -90 -19 -19 -34 -39 -34 -45 0
-5 -6 -10 -14 -10 -17 0 -30 16 -19 22 5 1 19 26 32 53 13 28 35 66 50 85 14
19 24 44 23 55 -2 12 3 34 10 51 l13 29 3 -47 c2 -25 -4 -72 -13 -103z m-90
45 c-23 -45 -28 -32 -7 20 10 26 18 38 20 28 2 -9 -4 -31 -13 -48z m-264 7
c-8 -8 -11 -7 -11 4 0 20 13 34 18 19 3 -7 -1 -17 -7 -23z m39 -26 c0 -6 -4
-13 -10 -16 -5 -3 -10 1 -10 9 0 9 5 16 10 16 6 0 10 -4 10 -9z m161 -14 c-10
-9 -11 -8 -5 6 3 10 9 15 12 12 3 -3 0 -11 -7 -18z m323 -14 c-7 -44 -43 -109
-73 -137 -12 -11 -21 -16 -21 -12 0 4 -16 -5 -35 -20 -53 -40 -50 -25 3 21 25
22 43 33 38 25 -4 -8 0 -6 9 5 16 18 54 96 68 138 11 31 18 18 11 -20z m-545
-19 c-14 -18 -24 -11 -15 11 3 9 11 13 16 10 8 -5 7 -11 -1 -21z m36 -54 c3
-5 -1 -10 -9 -10 -9 0 -16 5 -16 10 0 6 4 10 9 10 6 0 13 -4 16 -10z m215 -19
c0 -6 -4 -13 -10 -16 -5 -3 -10 1 -10 9 0 9 5 16 10 16 6 0 10 -4 10 -9z
m-242 -50 c3 -8 -1 -12 -9 -9 -7 2 -15 10 -17 17 -3 8 1 12 9 9 7 -2 15 -10
17 -17z m222 -6 c0 -8 -9 -15 -20 -15 -11 0 -20 7 -20 15 0 8 9 15 20 15 11 0
20 -7 20 -15z m-52 -23 c2 -7 -2 -10 -12 -6 -9 3 -16 11 -16 16 0 13 23 5 28
-10z m-128 -2 c0 -5 -4 -10 -9 -10 -6 0 -13 5 -16 10 -3 6 1 10 9 10 9 0 16
-4 16 -10z m238 -16 c40 -11 23 -24 -30 -24 -51 0 -52 1 -28 14 31 17 30 17
58 10z"/>
<path d="M2185 8010 c3 -5 8 -10 11 -10 2 0 4 5 4 10 0 6 -5 10 -11 10 -5 0
-7 -4 -4 -10z"/>
<path d="M6116 7132 l-90 -97 99 95 c55 52 101 96 104 98 2 1 -2 2 -10 2 -8
-1 -54 -45 -103 -98z"/>
<path d="M2910 6646 c0 -2 7 -7 16 -10 8 -3 12 -2 9 4 -6 10 -25 14 -25 6z"/>
<path d="M3002 6584 c10 -10 20 -16 22 -13 3 3 -5 11 -17 18 -21 13 -21 12 -5
-5z"/>
<path d="M5405 5170 c3 -5 8 -10 11 -10 2 0 4 5 4 10 0 6 -5 10 -11 10 -5 0
-7 -4 -4 -10z"/>
<path d="M4147 5433 c-12 -12 -7 -59 8 -79 8 -10 15 -14 15 -7 0 6 -5 15 -10
18 -6 4 -8 21 -4 41 6 33 4 40 -9 27z"/>
<path d="M4315 5160 c12 -41 27 -60 20 -25 -4 17 -11 35 -17 40 -7 7 -8 2 -3
-15z"/>
<path d="M5104 4415 c0 -66 1 -92 3 -57 2 34 2 88 0 120 -2 31 -3 3 -3 -63z"/>
<path d="M5440 2034 c0 -8 5 -12 10 -9 6 3 10 10 10 16 0 5 -4 9 -10 9 -5 0
-10 -7 -10 -16z"/>
<path d="M3200 740 c0 -5 5 -10 11 -10 5 0 7 5 4 10 -3 6 -8 10 -11 10 -2 0
-4 -4 -4 -10z"/>
<path d="M3210 716 c0 -2 7 -7 16 -10 8 -3 12 -2 9 4 -6 10 -25 14 -25 6z"/>
<path d="M5668 653 c6 -2 18 -2 25 0 6 3 1 5 -13 5 -14 0 -19 -2 -12 -5z"/>
<path d="M6968 11833 c7 -3 16 -2 19 1 4 3 -2 6 -13 5 -11 0 -14 -3 -6 -6z"/>
<path d="M2505 11174 c-32 -34 -39 -59 -27 -92 6 -15 13 -38 16 -52 7 -32 45
-58 57 -39 6 11 12 10 27 -4 10 -9 30 -17 45 -17 22 0 27 6 33 35 3 19 10 35
15 35 17 0 9 63 -12 96 -42 69 -110 86 -154 38z"/>
<path d="M8146 10797 c3 -10 9 -15 12 -12 3 3 0 11 -7 18 -10 9 -11 8 -5 -6z"/>
<path d="M8140 10760 c0 -5 5 -10 10 -10 6 0 10 5 10 10 0 6 -4 10 -10 10 -5
0 -10 -4 -10 -10z"/>
<path d="M3130 4970 c0 -5 5 -10 10 -10 6 0 10 5 10 10 0 6 -4 10 -10 10 -5 0
-10 -4 -10 -10z"/>
<path d="M3146 4707 c3 -10 9 -15 12 -12 3 3 0 11 -7 18 -10 9 -11 8 -5 -6z"/>
<path d="M3330 2066 c0 -2 8 -10 18 -17 15 -13 16 -12 3 4 -13 16 -21 21 -21
13z"/>
<path d="M6237 1963 c-23 -120 -44 -295 -52 -433 -4 -72 -12 -122 -21 -134
-29 -41 -10 -228 34 -341 38 -95 72 -88 104 21 l22 78 16 -36 c9 -20 21 -42
28 -51 9 -10 10 -33 6 -73 -5 -42 -3 -56 4 -49 32 29 96 450 74 486 -7 10 -12
30 -12 44 0 16 -6 25 -15 25 -8 0 -15 -6 -15 -14 0 -18 -42 -128 -47 -123 -2
3 1 17 7 33 6 16 8 30 3 31 -4 2 -7 67 -6 145 1 149 -2 154 -16 28 l-8 -75 -2
121 c-1 163 -47 404 -76 404 -7 0 -18 -35 -28 -87z m59 -129 c18 -108 14 -456
-5 -505 -5 -13 -10 -19 -10 -12 -1 6 -17 33 -37 59 l-37 48 11 137 c16 200 44
403 54 386 4 -8 15 -59 24 -113z m104 -586 c-6 -79 -13 -144 -14 -146 -2 -1
-13 19 -24 46 -21 48 -21 49 -3 108 11 32 24 79 31 103 19 73 23 39 10 -111z
m-144 60 c23 -46 25 -55 14 -87 -15 -45 -37 -77 -47 -67 -5 4 -10 55 -11 113
-4 118 2 124 44 41z m-79 -10 c-3 -7 -5 -2 -5 12 0 14 2 19 5 13 2 -7 2 -19 0
-25z m97 -219 c-20 -67 -31 -80 -43 -48 -7 18 -5 27 8 39 9 8 23 28 29 44 20
46 23 24 6 -35z"/>
<path d="M5175 1610 l-20 -9 20 0 c11 0 27 4 35 9 13 9 13 10 0 9 -8 0 -24 -4
-35 -9z"/>
<path d="M4206 1422 c-4 -35 -6 -66 -3 -69 9 -8 19 59 15 98 -3 27 -5 21 -12
-29z"/>
<path d="M7223 643 c15 -2 37 -2 50 0 12 2 0 4 -28 4 -27 0 -38 -2 -22 -4z"/>
<path d="M1868 573 c7 -3 16 -2 19 1 4 3 -2 6 -13 5 -11 0 -14 -3 -6 -6z"/>
<path d="M5722 543 c4 -23 41 -30 151 -32 57 -1 87 3 87 10 0 7 -24 10 -67 9
-108 -3 -131 -1 -147 15 -19 20 -28 19 -24 -2z"/>
<path d="M5768 553 c12 -2 32 -2 45 0 12 2 2 4 -23 4 -25 0 -35 -2 -22 -4z"/>
</g>
</svg>
